<svg width="340" height="74" viewBox="0 0 340 74" fill="none" xmlns="http://www.w3.org/2000/svg">
<path fill-rule="evenodd" clip-rule="evenodd" d="M268.986 0.0385489C284.322 0.197809 299.439 1.9722 314.338 5.36171C331.284 9.21694 342.094 22.5401 339.658 36.5695C336.926 52.3106 322.173 64.9629 302.819 68.1666C295.334 69.4053 286.829 70.5089 277.301 71.4773C234.018 75.8779 196.8 73.1825 174.817 73.1825C152.834 73.1825 155.829 72.3516 131.247 71.4773C106.667 70.6038 117.263 71.1797 81.9707 69.8831C69.0201 69.4069 56.0708 68.9087 43.1228 68.3886C41.7549 68.334 40.3927 68.2088 39.0448 68.0138C20.6038 70.0633 -4.12113 76.8873 0.583857 72.6259C3.98885 69.5404 9.21484 63.3896 16.2608 54.1718C13.896 50.3069 12.794 46.0213 13.0588 41.7189L14.0218 25.5548C14.8058 12.3869 27.9458 1.87407 44.3198 1.31585C69.2257 0.464048 90.9997 0.0385489 109.643 0.0385489C147.95 0.0385489 144.703 2.4355 186.111 2.4355C227.518 2.4355 230.804 -0.357994 268.986 0.0385489Z" fill="#F8E2EE"/>
</svg>
