<svg width="311" height="65" viewBox="0 0 311 65" fill="none" xmlns="http://www.w3.org/2000/svg">
<path fill-rule="evenodd" clip-rule="evenodd" d="M64.9566 0.0338605C50.9286 0.173751 37.1011 1.73233 23.4729 4.70961C7.97232 8.09596 -1.91562 19.7988 0.312592 32.1219C2.81155 45.9485 16.3062 57.062 34.0094 59.8761C40.8559 60.9641 48.6355 61.9335 57.3508 62.7841C96.9419 66.6495 130.986 64.2819 151.094 64.2819C171.202 64.2819 168.463 63.5521 190.948 62.7841C213.431 62.0168 203.739 62.5227 236.021 61.3838C247.867 60.9655 259.712 60.5279 271.555 60.0711C272.807 60.0231 274.053 59.9132 275.285 59.7418C292.154 61.5421 314.77 67.5362 310.466 63.793C307.351 61.0828 302.571 55.6801 296.126 47.5833C298.289 44.1885 299.297 40.4241 299.055 36.645L298.174 22.4468C297.457 10.8804 285.438 1.64614 270.46 1.15581C247.679 0.407609 227.762 0.0338605 210.709 0.0338605C175.67 0.0338605 178.64 2.13929 140.764 2.13929C102.888 2.13929 99.8818 -0.314454 64.9566 0.0338605Z" fill="#D7E0E9"/>
</svg>
