<svg width="340" height="71" viewBox="0 0 340 71" fill="none" xmlns="http://www.w3.org/2000/svg">
<path fill-rule="evenodd" clip-rule="evenodd" d="M268.986 0.0369861C284.322 0.18979 299.439 1.89224 314.338 5.14434C331.284 8.84328 342.094 21.6263 339.658 35.087C336.926 50.1899 322.173 62.3293 302.819 65.4031C295.334 66.5916 286.829 67.6504 277.301 68.5796C234.018 72.8018 196.8 70.2157 174.817 70.2157C152.834 70.2157 155.829 69.4185 131.247 68.5796C106.667 67.7415 117.263 68.294 81.9707 67.05C69.0201 66.5931 56.0708 66.1151 43.1228 65.6161C41.7549 65.5638 40.3927 65.4436 39.0448 65.2565C20.6038 67.2229 -4.12113 73.7703 0.583857 69.6816C3.98885 66.7212 9.21484 60.8198 16.2608 51.9757C13.896 48.2675 12.794 44.1555 13.0588 40.0276L14.0218 24.5188C14.8058 11.8847 27.9458 1.79809 44.3198 1.2625C69.2257 0.445235 90.9997 0.0369861 109.643 0.0369861C147.95 0.0369861 144.703 2.33676 186.111 2.33676C227.518 2.33676 230.804 -0.34348 268.986 0.0369861Z" fill="#FFF2CE"/>
</svg>
