<svg width="305" height="66" viewBox="0 0 305 66" fill="none" xmlns="http://www.w3.org/2000/svg">
<path fill-rule="evenodd" clip-rule="evenodd" d="M63.7034 0.0343814C49.9461 0.176425 36.3853 1.75899 23.0201 4.78206C7.81851 8.22051 -1.87866 20.1033 0.306549 32.6161C2.75732 46.6554 15.9916 57.9399 33.3532 60.7973C40.0677 61.902 47.6972 62.8863 56.2444 63.75C95.0717 67.6749 128.459 65.2709 148.179 65.2709C167.899 65.2709 165.213 64.5298 187.264 63.75C209.314 62.9709 199.809 63.4846 231.467 62.3282C243.085 61.9034 254.701 61.4591 266.316 60.9953C267.543 60.9466 268.765 60.8349 269.975 60.661C286.517 62.4889 308.697 68.5752 304.476 64.7745C301.422 62.0226 296.734 56.5367 290.413 48.3154C292.535 44.8684 293.523 41.046 293.285 37.2088L292.422 22.7921C291.718 11.0477 279.931 1.67146 265.243 1.1736C242.9 0.41388 223.368 0.0343814 206.644 0.0343814C172.281 0.0343814 175.193 2.1722 138.048 2.1722C100.903 2.1722 97.9548 -0.319292 63.7034 0.0343814Z" fill="#F1F6D2"/>
</svg>
