<svg width="24" height="5" viewBox="0 0 24 5" fill="none" xmlns="http://www.w3.org/2000/svg">
<path d="M1.76529 4.22482C1.16885 4.24455 0.693839 4.39211 0.121608 4.14057C0.0162868 3.60316 -0.083637 2.99148 0.109996 2.51226C0.223821 2.23029 0.421052 2.04888 0.61632 1.89498C1.07898 1.53046 1.54622 1.24994 2.06791 1.20002C2.52436 1.15644 2.97802 1.0566 3.43381 0.994506C3.69973 0.958468 3.96843 0.919994 4.23402 0.938987C4.48702 0.95652 8.45504 0.691588 8.58515 0.779249C8.88786 0.744915 9.04999 0.730548 9.30266 0.726652C9.80947 0.71886 10.3189 0.691588 10.8224 0.75636C11.2758 0.814314 11.7265 0.872754 12.1816 0.861553C12.6669 0.849865 13.1526 0.854248 13.6381 0.839881C14.1477 0.824784 14.6573 0.775353 15.1669 0.779249C15.688 0.783389 16.209 0.845969 16.7302 0.859605C16.996 0.86691 17.2625 0.806034 17.5285 0.808956C17.711 0.811392 17.8925 0.885417 18.0753 0.900027C18.2094 0.910741 18.3454 0.879085 18.4803 0.862284C18.5189 0.857414 18.5571 0.822836 18.5948 0.825758C19.2635 0.879085 19.9325 0.924864 20.6004 0.996454C21.3063 1.07194 22.0427 0.92389 22.7356 1.06464C23.1414 1.14718 23.5478 1.42112 23.781 1.92225C23.9465 2.27777 24.0621 2.90162 23.9638 3.33043C23.8511 3.81988 23.538 3.90194 23.2078 3.99057C22.2331 4.25258 21.2991 4.04707 20.3307 4.1452C19.4619 4.23286 18.5854 4.12986 17.7092 4.08943C17.3111 4.07093 16.9121 4.10916 16.5135 4.10648C15.7838 4.10137 15.0539 4.08578 14.3242 4.07336C13.7618 4.06387 13.1992 4.03927 12.6368 4.04585C12.1352 4.05169 11.6339 4.10039 11.1324 4.11184C10.9184 4.11671 10.704 4.06679 10.4898 4.05656C10.0211 4.03392 9.55239 4.02028 9.08351 4.00372C8.80811 3.99374 8.53271 3.97547 8.25747 3.97718C7.74918 3.98035 7.13633 4.22482 6.58705 4.22482C6.03778 4.22482 2.36205 4.20534 1.76529 4.22482Z" fill="#0B4A72"/>
</svg>
