<svg width="16" height="12" viewBox="0 0 16 12" fill="none" xmlns="http://www.w3.org/2000/svg">
<path d="M4.17547 0.0792971C4.47253 0.175394 4.82745 0.242931 5.14369 0.329699C5.328 0.380414 5.5164 0.430641 5.64241 0.508512C5.76304 0.582413 8.22509 1.47423 8.20408 1.55116C8.40682 1.61221 8.51116 1.64689 8.65423 1.7101C8.9412 1.8369 9.25017 1.95473 9.45871 2.11661C9.64683 2.26216 9.833 2.40729 10.0951 2.51908C10.3743 2.63838 10.6369 2.76577 10.9191 2.88383C11.2153 3.00773 11.5477 3.11464 11.8239 3.24794C12.1061 3.38432 12.3265 3.54961 12.5988 3.69073C12.7372 3.76286 12.9481 3.80145 13.0913 3.87145C13.1891 3.91971 13.2108 4.00314 13.2959 4.05751C13.3583 4.09739 13.4665 4.11675 13.5584 4.14322C13.5848 4.15076 13.6424 4.14351 13.66 4.15465C13.9202 4.32072 14.1861 4.48424 14.4366 4.65462L14.1343 4.56262C14.6007 4.69592 15.323 4.97491 15.7218 5.21249C16.1766 5.4838 16.0911 5.60516 16.0031 5.73415C15.7437 6.11512 15.013 6.25418 14.584 6.55238C14.1987 6.81977 13.608 6.99473 13.0834 7.20062C12.8449 7.29408 12.6658 7.41588 12.4438 7.5173C12.0371 7.70289 11.6192 7.88334 11.2048 8.06531C10.8854 8.2056 10.55 8.33846 10.2477 8.48671C9.97799 8.61891 9.75374 8.77224 9.48997 8.90721C9.37747 8.96477 9.20684 8.99533 9.07821 9.0455C8.79653 9.15512 8.52435 9.26921 8.249 9.38189C8.08699 9.44794 7.91624 9.5099 7.76667 9.5817C7.49047 9.71431 7.41157 9.99331 7.10949 10.1349C6.8074 10.2765 4.76528 11.2145 4.45765 11.378C4.15045 11.5415 4.04503 11.737 3.46471 11.76C2.8393 11.5211 2.13845 11.2441 1.73891 10.957C1.50376 10.7881 1.42067 10.6475 1.36556 10.521C1.23509 10.2212 1.19585 9.96194 1.43006 9.80274C1.63507 9.6635 1.77915 9.49713 1.96425 9.34889C2.07244 9.2625 2.17959 9.17418 2.34572 9.11512C2.50337 9.05857 4.40592 7.90448 4.57004 7.91433C4.70027 7.8193 4.77426 7.77039 4.90911 7.70332C5.17962 7.56881 5.43099 7.42398 5.77632 7.32623C6.08684 7.23804 6.39644 7.15078 6.63492 7.0279C6.88944 6.89702 7.1612 6.77397 7.41307 6.64169C7.67739 6.50284 7.90546 6.347 8.18983 6.21755C8.48076 6.08528 8.8334 5.98193 9.13445 5.85431C9.28832 5.78942 9.37065 5.69056 9.51998 5.62346C9.58344 5.5952 9.6754 5.5805 9.76378 5.56403C9.7515 5.55575 9.73911 5.54876 9.72667 5.54179C9.52729 5.43001 9.26746 5.34606 9.05109 5.24199C8.65517 5.05134 8.27021 4.85546 7.88199 4.66119C7.58271 4.5115 7.29927 4.35429 6.98301 4.21255C6.70099 4.08614 6.37389 3.98102 6.08595 3.85738C5.96316 3.80464 5.89795 3.72466 5.79093 3.66437C5.55706 3.53233 5.31368 3.40475 5.0733 3.27567C4.93238 3.19973 4.8002 3.11969 4.64703 3.04958C4.36414 2.92011 3.76893 2.88313 3.46685 2.74153C3.16476 2.59993 1.16378 1.64268 0.815011 1.49848C0.466161 1.35448 0.0490995 1.30506 0 1.03304C0.509555 0.73988 1.1005 0.411354 1.71302 0.224073C2.07337 0.113845 2.3734 0.0748979 2.6433 0.0490642C3.28267 -0.0120931 3.83584 -0.0304878 4.17547 0.0792971Z" fill="#0B4A72"/>
</svg>
