<svg width="16" height="11" viewBox="0 0 16 11" fill="none" xmlns="http://www.w3.org/2000/svg">
<path d="M4.17547 0.0740106C4.47253 0.163701 4.82745 0.226736 5.14369 0.307719C5.328 0.355053 5.5164 0.401932 5.64241 0.474611C5.76304 0.543585 8.22509 1.37595 8.20408 1.44775C8.40682 1.50473 8.51116 1.5371 8.65423 1.5961C8.9412 1.71444 9.25017 1.82442 9.45871 1.9755C9.64683 2.11135 9.833 2.2468 10.0951 2.35114C10.3743 2.46249 10.6369 2.58138 10.9191 2.69158C11.2153 2.80722 11.5477 2.907 11.8239 3.03141C12.1061 3.15869 12.3265 3.31297 12.5988 3.44468C12.7372 3.512 12.9481 3.54802 13.0913 3.61335C13.1891 3.65839 13.2108 3.73627 13.2959 3.78701C13.3583 3.82423 13.4665 3.8423 13.5584 3.86701C13.5848 3.87404 13.6424 3.86728 13.66 3.87768C13.9202 4.03267 14.1861 4.18529 14.4366 4.34431L14.1343 4.25844C14.6007 4.38286 15.323 4.64324 15.7218 4.86499C16.1766 5.11822 16.0911 5.23148 16.0031 5.35188C15.7437 5.70745 15.013 5.83723 14.584 6.11556C14.1987 6.36512 13.608 6.52842 13.0834 6.72058C12.8449 6.80781 12.6658 6.92148 12.4438 7.01614C12.0371 7.18936 11.6192 7.35778 11.2048 7.52762C10.8854 7.65856 10.55 7.78257 10.2477 7.92093C9.97799 8.04431 9.75374 8.18742 9.48997 8.3134C9.37747 8.36712 9.20684 8.39564 9.07821 8.44247C8.79653 8.54478 8.52435 8.65126 8.249 8.75643C8.08699 8.81808 7.91624 8.87591 7.76667 8.94292C7.49047 9.06669 7.41157 9.32709 7.10949 9.45925C6.8074 9.59141 4.76528 10.4668 4.45765 10.6194C4.15045 10.7721 4.04503 10.9545 3.46471 10.976C2.8393 10.7531 2.13845 10.4945 1.73891 10.2266C1.50376 10.0689 1.42067 9.93763 1.36556 9.81955C1.23509 9.53983 1.19585 9.29781 1.43006 9.14923C1.63507 9.01926 1.77915 8.86399 1.96425 8.72563C2.07244 8.645 2.17959 8.56257 2.34572 8.50744C2.50337 8.45467 4.40592 7.37752 4.57004 7.38671C4.70027 7.29801 4.77426 7.25237 4.90911 7.18977C5.17962 7.06422 5.43099 6.92905 5.77632 6.83781C6.08684 6.75551 6.39644 6.67406 6.63492 6.55937C6.88944 6.43722 7.1612 6.32237 7.41307 6.19891C7.67739 6.06932 7.90546 5.92387 8.18983 5.80305C8.48076 5.67959 8.8334 5.58313 9.13445 5.46403C9.28832 5.40346 9.37065 5.31119 9.51998 5.24856C9.58344 5.22218 9.6754 5.20846 9.76378 5.1931C9.7515 5.18537 9.73911 5.17884 9.72667 5.17234C9.52729 5.06801 9.26746 4.98966 9.05109 4.89252C8.65517 4.71458 8.27021 4.53176 7.88199 4.35044C7.58271 4.21073 7.29927 4.06401 6.98301 3.93172C6.70099 3.81373 6.37389 3.71562 6.08595 3.60022C5.96316 3.551 5.89795 3.47635 5.79093 3.42008C5.55706 3.29684 5.31368 3.17776 5.0733 3.0573C4.93238 2.98642 4.8002 2.91172 4.64703 2.84628C4.36414 2.72544 3.76893 2.69092 3.46685 2.55876C3.16476 2.4266 1.16378 1.53317 0.815011 1.39858C0.466161 1.26418 0.0490995 1.21806 0 0.964168C0.509555 0.690555 1.1005 0.38393 1.71302 0.209135C2.07337 0.106256 2.3734 0.0699047 2.6433 0.0457933C3.28267 -0.0112869 3.83584 -0.0284553 4.17547 0.0740106Z" fill="#0B4A72"/>
</svg>
